<svg id="Layer_1" data-name="Layer 1" xmlns="http://www.w3.org/2000/svg" viewBox="0 0 923 843"><defs><style>.cls-1{fill:#ffb27d;}.cls-2{fill:#f2dd72;}.cls-3{fill:#efa26f;}.cls-4{fill:#ffc197;}.cls-5{fill:#231f20;}.cls-6{fill:#c0d8fb;}.cls-7{fill:#cbe1fd;}.cls-8{fill:#ffd3b6;}.cls-9{fill:#ed7d2b;}.cls-10{fill:#dceaff;}.cls-11{fill:#8d1233;}.cls-12{fill:#dfebfd;}.cls-13{fill:#128c2c;}.cls-14{fill:#fff;}.cls-15{fill:#9ec3f6;}.cls-16{fill:#d2e3fc;}.cls-17{fill:#f99746;}</style></defs><title>Untitled-3</title><path class="cls-1" d="M559.14,368.32s-45.08,90.19-90.88,152.45c-18.22,24.78-36.55,45.13-52.21,53.62-15.32,8.31-28.28,21.21-39,35.51-27.79,37-40.61,83.38-40.61,83.38L219.32,516.1s4-173.18,18.06-202.15c20.49-42.21,30.39-127.51,38.26-144.49,5.84-12.6,22.52-77.67,24.12-82.45.69-2.06,6.24-5.22,13.45-5.21,5.78,0,15.6,5.59,18.08,17.08,12.52,58.06-2.55,96.36-2.38,98.06,4.42,44.62-8.86,77.75.45,86.52.35.32,1,.17,1.9-.41,16.14-10.37,116.34-156.44,128.68-159.6,13-3.32,99.19,244.86,99.19,244.86Z"/><path class="cls-2" d="M371.66,658.21S370.06,736.93,365.5,843H70.11C137.63,699,196.33,577.8,196.33,577.8s168.19,5.14,175.32,80.41Z"/><path class="cls-1" d="M661.52,63.09l-36.27,53.16-35.58,52.17a8.14,8.14,0,0,1-7.4,3.27c-8.54-.81-19.1-13.13-27.34-19.95l-.83-.69A25.69,25.69,0,0,1,550.69,115l54.39-65.75h0l16.13-19.5a25.69,25.69,0,0,1,36.06-3.41l.84.69a25.7,25.7,0,0,1,3.41,36.07Z"/><path class="cls-3" d="M625.26,116.25l-35.58,52.17a8.14,8.14,0,0,1-7.4,3.27l22.8-122.44c.05.69,3.93,55.62,20.18,67Z"/><path class="cls-3" d="M468.26,520.77c-18.22,24.78-36.55,45.13-52.21,53.62-15.32,8.31-28.28,21.21-39,35.51-12.34-5.75-26.41-12.5-40.16-19.19-16.75-8.14-17.39-31.92-1-40.73l.47-.26c15.37-8.79,31.12-39.84,31.12-39.84l100.78,10.9Z"/><path class="cls-4" d="M298.95,89.71,289.46,128s8.29,3.39,13.62.76,9.67-37-4.13-39.06Z"/><path class="cls-5" d="M571.81,538.87h-204a36.6,36.6,0,0,1-36.49-36.49V53.91a36.6,36.6,0,0,1,36.49-36.49h204A36.6,36.6,0,0,1,608.3,53.91V502.38a36.59,36.59,0,0,1-36.49,36.49Z"/><path class="cls-6" d="M594.57,57.36V495.44a27,27,0,0,1-26.82,27H371.84a27,27,0,0,1-26.82-27V57.36a27,27,0,0,1,26.82-27H567.75a27,27,0,0,1,26.82,27Z"/><path class="cls-7" d="M567.75,30.35,374.26,522.46h-2.42a27,27,0,0,1-26.82-27V57.36a27,27,0,0,1,26.82-27Z"/><path class="cls-5" d="M510.74,46.64H428.86a12.16,12.16,0,0,1-12.12-12.13V32.6a12.16,12.16,0,0,1,12.12-12.13h81.88A12.16,12.16,0,0,1,522.86,32.6v1.91a12.16,12.16,0,0,1-12.12,12.13Z"/><path class="cls-1" d="M643.47,263.84l-5.41,2.06L601.7,279.72a23.22,23.22,0,0,1-2.58.82,24.84,24.84,0,0,1-29.37-15.17l-.53-1.4a24.84,24.84,0,0,1,14.35-32l33.9-12.88,2.46-.94,5.41-2.05a24.83,24.83,0,0,1,31.94,14.35l.54,1.4a24.84,24.84,0,0,1-14.36,32Z"/><path class="cls-8" d="M613.94,264.68c-6.06,2.3-17.05,6.38-22.93,7.23-1.66.24-4.73-.66-7.59-3.8a22.47,22.47,0,0,1-4.57-8.25,26.55,26.55,0,0,1-1.24-5.26,22.15,22.15,0,0,1,.2-6.26,6.24,6.24,0,0,1,3.47-4.47h0a143.47,143.47,0,0,1,22.06-8.65c5.1-1.41,10.27.84,11.88,5.31l.76,2.09,3.9,10.69c1.62,4.44-1,9.52-6,11.39Z"/><path class="cls-4" d="M613.94,264.68c-6.06,2.3-17.05,6.38-22.93,7.23-1.66.24-4.73-.66-7.59-3.8-.3-.71-.58-1.46-.85-2.27a25.91,25.91,0,0,1-1.24-5.26,22.32,22.32,0,0,1,.2-6.26,6.26,6.26,0,0,1,3.47-4.47h0a143.29,143.29,0,0,1,22.06-8.65A10.45,10.45,0,0,1,616,242.6l3.9,10.69c1.62,4.44-1,9.52-6,11.39Z"/><path class="cls-1" d="M627,315l-28,7.63a16.1,16.1,0,0,1-19.71-11.28l-.87-3.17a16.11,16.11,0,0,1,11.28-19.71l28-7.63a16.11,16.11,0,0,1,19.71,11.27l.86,3.17A16.1,16.1,0,0,1,627,315Z"/><path class="cls-8" d="M611.8,313.59c-5.15,1.38-14.46,3.8-19.34,4.07-1.78.1-5.33-1.4-7.65-6.07a21.24,21.24,0,0,1-2.06-8.08,16.07,16.07,0,0,1,.63-4.8,5,5,0,0,1,3.17-3.2h0a125.18,125.18,0,0,1,18.73-5.22c4.28-.75,8.35,1.31,9.36,4.85l.73,2.53,2.16,7.58c1,3.51-1.54,7.25-5.74,8.36Z"/><path class="cls-4" d="M611.8,313.59c-5.15,1.38-14.46,3.8-19.34,4.07-1.78.1-5.33-1.4-7.65-6.07a17.81,17.81,0,0,1-.57-3.87,16.1,16.1,0,0,1,.63-4.8,5,5,0,0,1,3.17-3.2h0a124.62,124.62,0,0,1,18.73-5.22c3.55-.62,7,.68,8.59,3.16l2.16,7.58c1,3.51-1.54,7.25-5.74,8.36Z"/><path class="cls-9" d="M167.57,637.53s57.72,55.28,96.63,76.63l29.46-20.9v30.83s57.94,10.25,76.22,0V640L207.15,558.44l-39.57,79.09Z"/><path class="cls-10" d="M382.18,717.4c-22.42,4.6-70.73-13-70.73-13l7.79-75.27-54.6,62.53c-27.79-10.34-71.24-37.32-97.06-54.11-12.85-8.36-21.34-14.2-21.34-14.2,36.44-58.63,73.09-113.47,73.09-113.47,10.76,21.52,36.22,40.21,63.82,55.16,45.87,24.84,97.64,39.36,97.64,39.36,0,44.74,1.4,113,1.4,113Z"/><path class="cls-1" d="M642.59,210.1l-.6.21-36.77,9.44c-16.16,4.15-32.89-4.59-37.15-19.44l-2.18-7.6c-4.1-14.25,4.71-29.15,19.73-34l12.14-3.12,24.63-6.32c16.16-4.15,32.88,4.59,37.15,19.44l2.19,7.6c4,14.06-4.48,28.74-19.13,33.78Z"/><path class="cls-8" d="M625.74,199.84l-17.86,8-.11,0a19,19,0,0,1-2.16.45l-.9.11a2.4,2.4,0,0,1-.38,0,2.84,2.84,0,0,1-2.47-4,17.76,17.76,0,0,0,1-12.11l-.43-1.56a.09.09,0,0,0,0,0L601,185.68a19,19,0,0,0-6.47-9.87c-.37-.3-.74-.58-1.13-.84a5.13,5.13,0,0,1,1.5-9.13l.11,0,19.6-3c4.85-1.32,9.51,2.41,10.83,7.26l1.57,5.78,3.35,12.32c1.31,4.85.16,10.34-4.68,11.65Z"/><path class="cls-4" d="M625.74,199.84l-17.86,8-.11,0c-.42.08-1.73.3-3.44.56a2.84,2.84,0,0,1-2.47-4,17.76,17.76,0,0,0,1-12.11l-.43-1.56a.09.09,0,0,0,0,0L601,185.68a19,19,0,0,0-6.47-9.87,5,5,0,0,1,2.81-2l.11,0,19.6-3c4.08-1.11,8,1.36,10,5.06l3.35,12.32c1.31,4.85.16,10.34-4.68,11.65Z"/><path class="cls-3" d="M331.29,401.33s-8-70-15.42-83.67-13.66-41-2.28-61.31,15.32-59.41,15.32-59.41c4.42,44.62-8.86,77.75.45,86.52.35.32,1,.17,1.9-.41l0,118.28Z"/><path class="cls-2" d="M231.89,287.3H510.44a17.51,17.51,0,0,0,17.51-17.51V158.23a17.51,17.51,0,0,0-17.51-17.51H231.89a17.51,17.51,0,0,0-17.51,17.51V269.79a17.51,17.51,0,0,0,17.51,17.51Z"/><path class="cls-11" d="M512.39,122.16h-109a14.65,14.65,0,0,1-14.64-14.65V86.84a14.65,14.65,0,0,1,14.64-14.65h109A14.64,14.64,0,0,1,527,86.84v20.68a14.64,14.64,0,0,1-14.64,14.65Z"/><path class="cls-2" d="M507.61,488.53H381.91A17.54,17.54,0,0,1,364.37,471V444.42a17.54,17.54,0,0,1,17.54-17.54H507.61a17.53,17.53,0,0,1,17.54,17.54V471a17.54,17.54,0,0,1-17.54,17.54Z"/><path class="cls-11" d="M556.46,401.33H437.71a21,21,0,0,1-21-21V333.86a21,21,0,0,1,21-21H556.46a21,21,0,0,1,21,21v46.47a21,21,0,0,1-21,21Z"/><path class="cls-1" d="M892.18,843H675.56c-10.39-7-64.33-43.76-86.66-71.2-4.73-5.82-22-55.92-35.33-96.59-8.3-25.41-15-47.15-16.18-52.14a64.92,64.92,0,0,1-.82-9.84v0c-.56-16.64.21-48.72,1-74.2v-.45c0-1.12.07-2.22.11-3.31v0c0-.11,0-.22,0-.33.15-4.43.29-8.6.42-12.39.33-9.48.62-16.62.73-19.41l0-1.3h0c.34-.19,10.76-5.75,24.69,4.28,3.36,2.42,6.47,8.28,9.3,15.92,1.81,4.88,3.51,10.48,5.09,16.39,6.08,22.71,10.45,49.86,12.78,57.13,3.76,11.75,48,63.41,50.82,66.62l.13.16V580.66L608.3,491.19l-13.73-36.73L587.67,436a332.77,332.77,0,0,1-19.46-38.27,180.62,180.62,0,0,1-9.65-28.29c-.53-2.22-1-4.42-1.33-6.57h0c-1.3-7.89-1.39-15.2.42-21.16,3.23-10.61,10.52-12.61,16.12-12.39.58,0,1.14.07,1.68.13a11.45,11.45,0,0,1,1.61.31,11.22,11.22,0,0,1,2.78,1.16h0a11.28,11.28,0,0,1,3.64,3.4l11.07,14.47c4.17,5.46,9,11.84,13.73,18,8.33,11,16.08,21.18,18.2,24.17,11.5,16.19,42.48,69,42.48,69l36.26,1.52a24.05,24.05,0,0,1,15.41,6.45c12.89,12,40.69,38.09,44.1,42,0,1.27,21.6,11.66,38.29,20.91,11.94,5,34.61,22.92,34.61,22.92,4.7,4.15,8.28,8.28,10.09,12.22,7.77,16.92,28.86,164.06,38.94,236.8,3.24,23.38,5.35,39.08,5.51,40.29Z"/><path class="cls-3" d="M669,459.92s33.59,54.83,38,57.3,21.74,5.93,23.71,0S669,459.92,669,459.92Z"/><path class="cls-3" d="M837.81,553.84l-.17-.15S815,535.81,803,530.77c-15.32-8.49-34.78-17.94-37.86-20.42,3.56,4.07,28.57,32.38,38.2,34.5,8.45,1.86,27.65,7.11,34.44,9Z"/><path class="cls-3" d="M641.73,662.25V580.66s19.38,32.42,20.86,50.2-8.05,46.56-20.86,31.38Z"/><path class="cls-8" d="M571.41,362.85c-2.83-4.86-7.91-13.67-9.66-18.6-.49-1.39-.43-4.18,1.29-7.15a16.12,16.12,0,0,1,5.09-5.28,16.8,16.8,0,0,1,3.57-1.92,13.85,13.85,0,0,1,4.57-.84,4.86,4.86,0,0,1,3.9,2.27v0A142.91,142.91,0,0,1,590.69,349c2,4.17,1.37,9-1.55,11.11l-1.37,1-7,5.1c-2.9,2.11-7.08.67-9.39-3.3Z"/><path class="cls-4" d="M571.41,362.85c-2.83-4.86-7.91-13.67-9.66-18.6-.49-1.39-.43-4.18,1.29-7.15a17.72,17.72,0,0,1,1.47-1.1,16.8,16.8,0,0,1,3.57-1.92,13.88,13.88,0,0,1,4.57-.84,4.85,4.85,0,0,1,3.9,2.27v0a141.75,141.75,0,0,1,10.51,17.61,10.71,10.71,0,0,1,.7,7.93l-7,5.1c-2.9,2.11-7.08.67-9.39-3.3Z"/><path class="cls-12" d="M760.59,153.73H715.17A21.78,21.78,0,0,1,693.45,132V94.6a21.78,21.78,0,0,1,21.72-21.72h45.41A21.78,21.78,0,0,1,782.3,94.6V132a21.78,21.78,0,0,1-21.72,21.72Z"/><path class="cls-11" d="M714.27,112.64c2.47,6.5,23.62,23.59,23.62,23.59s6.9-5.6,13.28-11.64c4.78-4.47,9.25-9.17,10.31-11.95,2.51-6.46-.16-15.71-9.4-17.28s-14.19,8.07-14.19,8.07-5-9.64-14.22-8.07a12.59,12.59,0,0,0-4.23,1.49c-5.76,3.21-7.21,10.46-5.17,15.79Z"/><path class="cls-13" d="M30.32,364.28h136A19.78,19.78,0,0,1,186.08,384v59.68A18.16,18.16,0,0,1,168,461.79h-3.49L171,489.48l-41.15-27.69H29.15a19.76,19.76,0,0,1-19.7-19.7V385.16a20.94,20.94,0,0,1,20.87-20.88Z"/><path class="cls-14" d="M26.67,407.61H168.52a3.52,3.52,0,0,0,3.51-3.51h0a3.52,3.52,0,0,0-3.51-3.51H26.67a3.52,3.52,0,0,0-3.51,3.51h0a3.52,3.52,0,0,0,3.51,3.51Z"/><path class="cls-14" d="M26.67,423.33H168.52a3.52,3.52,0,0,0,3.51-3.51h0a3.52,3.52,0,0,0-3.51-3.51H26.67a3.52,3.52,0,0,0-3.51,3.51h0a3.52,3.52,0,0,0,3.51,3.51Z"/><path class="cls-14" d="M26.67,439.06H168.52a3.52,3.52,0,0,0,3.51-3.51h0a3.52,3.52,0,0,0-3.51-3.51H26.67a3.52,3.52,0,0,0-3.51,3.51h0a3.52,3.52,0,0,0,3.51,3.51Z"/><path class="cls-14" d="M104,383.18h60.22a4.19,4.19,0,0,0,4.18-4.18h0a4.19,4.19,0,0,0-4.18-4.18H104A4.2,4.2,0,0,0,99.77,379h0a4.19,4.19,0,0,0,4.18,4.18Z"/><path class="cls-14" d="M52.2,383.18H88.44a3.31,3.31,0,0,0,3.31-3.3v-1.76a3.32,3.32,0,0,0-3.31-3.31H52.2a3.32,3.32,0,0,0-3.31,3.31v1.76a3.31,3.31,0,0,0,3.31,3.3Z"/><polygon class="cls-15" points="713.88 394.55 799.45 422.53 748.19 372.57 742.99 384.78 720.96 384.89 713.88 394.55 713.88 394.55"/><polygon class="cls-14" points="799.45 422.53 733.04 372.01 662.09 355.81 799.45 422.53 799.45 422.53"/><polygon class="cls-14" points="748.19 372.57 799.45 422.53 765.28 352.55 748.19 372.57 748.19 372.57"/><polygon class="cls-15" points="209.32 75.79 129.35 87.2 182.42 51.02 185.12 62.62 204.57 66.14 209.32 75.79 209.32 75.79"/><polygon class="cls-14" points="129.35 87.2 195.9 52.88 261.13 49.6 129.35 87.2 129.35 87.2"/><polygon class="cls-14" points="182.42 51.02 129.35 87.2 170.43 30.66 182.42 51.02 182.42 51.02"/><path class="cls-14" d="M334.89,208.48A45.43,45.43,0,1,1,289.46,163a45.2,45.2,0,0,1,45.43,45.43Z"/><path class="cls-2" d="M307.71,230l-.35-.38c-.52-.4-1-.65-3.15-1-1.07-.18-2.55-.39-4.66-.66l-.69-.07-.53,0c-.6-.32-.76-2.82-.75-5.45,0-.2,0-.4,0-.59,0-1,0-2,.08-2.87,0-.06,0-.11,0-.16,1.3.11,2.16.1,2.16.1,2.42-.19,3.93-6.68,4.47-11.93a17.69,17.69,0,0,0,1.2-6,7.74,7.74,0,0,0-1.55-5,6.67,6.67,0,0,0-1.7-1.53c-.15-.15-.31-.29-.46-.42-2.25-2.5-11.4-11.87-17.41-6.45-.16-.54-2.11-6.63-11.58-4.63.59-.06,4.79-.46,6,1.24-.16-.07-3.83-1.7-6.14-.28a5.59,5.59,0,0,0-2.11,3.42v.05h0a.14.14,0,0,0,0,0l-.13.58s0,.06,0,.09v0h0a9.86,9.86,0,0,0-.11,3.59c.35,1.48,3,5.9,4.7,5.9a5.18,5.18,0,0,0,2-.49,21.93,21.93,0,0,0-.71,2.57c-1.84,8.66,3.91,15.24,6.89,13.61,1.91-1,3.36,2.3,3.36,2.3h0c-.28,6.33-2,10.47-3.31,11.5-.46.05-1.46.17-2.71.37h0a31.42,31.42,0,0,0-7.74,1.94l-.08,0a8,8,0,0,0-1.9,1.05h0a2.76,2.76,0,0,0-.61.64,1.55,1.55,0,0,0-.2.29,51.92,51.92,0,0,0-3.32,9.07,38.53,38.53,0,0,0,47.92-1.5,24.1,24.1,0,0,0-6.82-9Z"/><path class="cls-14" d="M417.62,185.59H366a3.26,3.26,0,0,1-3.25-3.25v-1.55a3.26,3.26,0,0,1,3.25-3.25h51.61a3.26,3.26,0,0,1,3.25,3.25v1.55a3.26,3.26,0,0,1-3.25,3.25Z"/><path class="cls-14" d="M418.24,214.56H365.38a2.63,2.63,0,0,1-2.63-2.63h0a2.63,2.63,0,0,1,2.63-2.63h52.86a2.63,2.63,0,0,1,2.63,2.63h0a2.63,2.63,0,0,1-2.63,2.63Z"/><path class="cls-14" d="M394.84,227H364.76a2,2,0,0,1-2-2v-1.23a2,2,0,0,1,2-2h30.08a2,2,0,0,1,2,2V225a2,2,0,0,1-2,2Z"/><path class="cls-14" d="M456.14,227h-48.6a2.53,2.53,0,0,1-2.52-2.52v-.21a2.53,2.53,0,0,1,2.52-2.52h48.6a2.53,2.53,0,0,1,2.52,2.52v.21a2.53,2.53,0,0,1-2.52,2.52Z"/><path class="cls-14" d="M501.55,214.56H432.23a2.63,2.63,0,0,1-2.63-2.63h0a2.63,2.63,0,0,1,2.63-2.63h69.32a2.64,2.64,0,0,1,2.63,2.63h0a2.64,2.64,0,0,1-2.63,2.63Z"/><path class="cls-14" d="M418.24,239.43H365.38a2.63,2.63,0,0,1-2.63-2.63h0a2.63,2.63,0,0,1,2.63-2.63h52.86a2.63,2.63,0,0,1,2.63,2.63h0a2.63,2.63,0,0,1-2.63,2.63Z"/><path class="cls-14" d="M501.55,239.43H432.23a2.63,2.63,0,0,1-2.63-2.63h0a2.63,2.63,0,0,1,2.63-2.63h69.32a2.64,2.64,0,0,1,2.63,2.63h0a2.64,2.64,0,0,1-2.63,2.63Z"/><path class="cls-14" d="M467.92,185.59H430.85a2.8,2.8,0,0,1-2.79-2.79v-2.49a2.8,2.8,0,0,1,2.79-2.79h37.07a2.79,2.79,0,0,1,2.79,2.79v2.49a2.79,2.79,0,0,1-2.79,2.79Z"/><path class="cls-14" d="M421.19,444.39H384.49a2.32,2.32,0,0,1-2.31-2.31V441a2.32,2.32,0,0,1,2.31-2.32h36.69A2.32,2.32,0,0,1,423.5,441v1.1a2.32,2.32,0,0,1-2.31,2.31Z"/><path class="cls-14" d="M421.63,459.07H384a1.88,1.88,0,0,1-1.87-1.87h0a1.88,1.88,0,0,1,1.87-1.87h37.58a1.88,1.88,0,0,1,1.87,1.87h0a1.88,1.88,0,0,1-1.87,1.87Z"/><path class="cls-14" d="M405,467.91H383.61a1.44,1.44,0,0,1-1.43-1.43v-.88a1.43,1.43,0,0,1,1.43-1.43H405a1.43,1.43,0,0,1,1.43,1.43v.88a1.44,1.44,0,0,1-1.43,1.43Z"/><path class="cls-14" d="M448.57,467.91H414a1.8,1.8,0,0,1-1.79-1.79V466a1.8,1.8,0,0,1,1.79-1.79h34.55a1.8,1.8,0,0,1,1.79,1.79v.15a1.8,1.8,0,0,1-1.79,1.79Z"/><path class="cls-14" d="M480.86,459.07H431.57a1.87,1.87,0,0,1-1.86-1.87h0a1.87,1.87,0,0,1,1.86-1.87h49.28a1.88,1.88,0,0,1,1.87,1.87h0a1.88,1.88,0,0,1-1.87,1.87Z"/><path class="cls-14" d="M421.63,476.74H384a1.87,1.87,0,0,1-1.87-1.86h0A1.88,1.88,0,0,1,384,473h37.58a1.88,1.88,0,0,1,1.87,1.87h0a1.87,1.87,0,0,1-1.87,1.86Z"/><path class="cls-14" d="M480.86,476.74H431.57a1.87,1.87,0,0,1-1.86-1.86h0a1.87,1.87,0,0,1,1.86-1.87h49.28a1.88,1.88,0,0,1,1.87,1.87h0a1.87,1.87,0,0,1-1.87,1.86Z"/><path class="cls-14" d="M457,444.39H430.6a2,2,0,0,1-2-2v-1.77a2,2,0,0,1,2-2H457a2,2,0,0,1,2,2v1.77a2,2,0,0,1-2,2Z"/><path class="cls-2" d="M445.53,87.56H408.84a2.32,2.32,0,0,1-2.32-2.31v-1.1a2.32,2.32,0,0,1,2.32-2.31h36.69a2.32,2.32,0,0,1,2.32,2.31v1.1a2.32,2.32,0,0,1-2.32,2.31Z"/><path class="cls-2" d="M446,102.23H408.39a1.88,1.88,0,0,1-1.87-1.87h0a1.88,1.88,0,0,1,1.87-1.87H446a1.88,1.88,0,0,1,1.87,1.87h0a1.88,1.88,0,0,1-1.87,1.87Z"/><path class="cls-2" d="M429.33,111.07H408a1.44,1.44,0,0,1-1.43-1.43v-.87a1.44,1.44,0,0,1,1.43-1.43h21.38a1.44,1.44,0,0,1,1.43,1.43v.87a1.44,1.44,0,0,1-1.43,1.43Z"/><path class="cls-2" d="M472.92,111.07H438.36a1.8,1.8,0,0,1-1.79-1.79v-.15a1.8,1.8,0,0,1,1.79-1.79h34.56a1.8,1.8,0,0,1,1.79,1.79v.15a1.8,1.8,0,0,1-1.79,1.79Z"/><path class="cls-2" d="M505.2,102.23H455.92a1.88,1.88,0,0,1-1.87-1.87h0a1.88,1.88,0,0,1,1.87-1.87H505.2a1.87,1.87,0,0,1,1.86,1.87h0a1.87,1.87,0,0,1-1.86,1.87Z"/><path class="cls-2" d="M481.29,87.56H454.94a2,2,0,0,1-2-2V83.81a2,2,0,0,1,2-2h26.35a2,2,0,0,1,2,2v1.77a2,2,0,0,1-2,2Z"/><path class="cls-2" d="M478,335.34H437.79a2.54,2.54,0,0,1-2.53-2.53V331.6a2.54,2.54,0,0,1,2.53-2.53H478a2.54,2.54,0,0,1,2.53,2.53v1.21a2.54,2.54,0,0,1-2.53,2.53Z"/><path class="cls-2" d="M478.45,351.4H437.3a2,2,0,0,1-2-2h0a2,2,0,0,1,2-2h41.15a2,2,0,0,1,2,2h0a2,2,0,0,1-2,2Z"/><path class="cls-2" d="M460.23,361.07H436.82a1.57,1.57,0,0,1-1.57-1.57v-1a1.57,1.57,0,0,1,1.57-1.57h23.41a1.57,1.57,0,0,1,1.57,1.57v1a1.57,1.57,0,0,1-1.57,1.57Z"/><path class="cls-2" d="M507.94,361.07H470.12a2,2,0,0,1-2-2v-.16a2,2,0,0,1,2-2h37.83a2,2,0,0,1,2,2v.16a2,2,0,0,1-2,2Z"/><path class="cls-2" d="M543.29,351.4h-54a2,2,0,0,1-2-2h0a2,2,0,0,1,2-2h54a2,2,0,0,1,2,2h0a2,2,0,0,1-2,2Z"/><path class="cls-2" d="M478.45,370.75H437.3a2,2,0,0,1-2-2h0a2,2,0,0,1,2-2h41.15a2,2,0,0,1,2,2h0a2,2,0,0,1-2,2Z"/><path class="cls-2" d="M543.29,370.75h-54a2,2,0,0,1-2-2h0a2,2,0,0,1,2-2h54a2,2,0,0,1,2,2h0a2,2,0,0,1-2,2Z"/><path class="cls-2" d="M478.45,380.83H437.3a2,2,0,0,1-2-2h0a2,2,0,0,1,2-2h41.15a2,2,0,0,1,2,2h0a2,2,0,0,1-2,2Z"/><path class="cls-2" d="M543.29,380.83h-54a2,2,0,0,1-2-2h0a2,2,0,0,1,2-2h54a2,2,0,0,1,2,2h0a2,2,0,0,1-2,2Z"/><path class="cls-2" d="M517.12,335.34H488.27a2.18,2.18,0,0,1-2.17-2.17v-1.93a2.17,2.17,0,0,1,2.17-2.17h28.85a2.17,2.17,0,0,1,2.17,2.17v1.93a2.18,2.18,0,0,1-2.17,2.17Z"/><path class="cls-5" d="M382.8,57.75l-2.79,2-2.81-2a3.44,3.44,0,0,1,5.6,0Z"/><path class="cls-5" d="M380,51.44A8.29,8.29,0,0,0,373.22,55L375,56.21a6.14,6.14,0,0,1,10,0l1.77-1.27A8.3,8.3,0,0,0,380,51.44Z"/><path class="cls-5" d="M380,42.15a17.55,17.55,0,0,0-14.37,7.47l1.78,1.24a15.4,15.4,0,0,1,25.13-.09l1.76-1.27A17.55,17.55,0,0,0,380,42.15Z"/><path class="cls-5" d="M380,47.24a12.56,12.56,0,0,0-10.25,5.29l1.77,1.24a10.42,10.42,0,0,1,16.91-.07l1.76-1.26A12.55,12.55,0,0,0,380,47.24Z"/><path class="cls-14" d="M364.33,353.48a17.84,17.84,0,0,0,28.07,14.62l.43-.31a17.84,17.84,0,1,0-28.5-14.31Z"/><path class="cls-11" d="M387,364.92l-1.64-1.46-.41.08a11.19,11.19,0,0,0-1-.6c.11-.66.2-1.28.27-1.83a29.47,29.47,0,0,0,.28-3.24c.87,0,1.46-.14,1.46-.14,1.65-.38,1.73-6,1.35-8.94a2.11,2.11,0,0,0,.92-.17c1.25-.55,1.32-2.44,1.32-2.44a2.21,2.21,0,0,1-.89.89s2.09-2.86-.33-4.81-4.87-.68-6.28-.59c-3.08.19-5.07.37-6.07,2.4s-.6,7.49,1.3,9.51c0,.19.07.37.09.56a3.77,3.77,0,0,0,.75,1.79,12.59,12.59,0,0,1-2.28,5.3,8.24,8.24,0,0,0-1.64,1.77l0,0h0a17.86,17.86,0,0,0-2.3,5.05v0a16.93,16.93,0,0,0,3.25,1.79l.23.09.05,0,.37.15c.3.12.6.23.91.32s.65.2,1,.28l.45.11.4.08h.06l.27.05.63.11.15,0,.35,0,.49.06.56,0,.53,0h1.7l.56,0a17.73,17.73,0,0,0,6.72-2,18.74,18.74,0,0,0-3.55-4.29Z"/><path class="cls-14" d="M539.54,457.2a18,18,0,1,0,18-18,17.87,17.87,0,0,0-18,18Z"/><path class="cls-2" d="M566.69,467.38a.62.62,0,0,0-.09-.14,1.41,1.41,0,0,0-.29-.3h0a3.61,3.61,0,0,0-.89-.49h0a14.47,14.47,0,0,0-3.61-.9c-.58-.09-1-.15-1.26-.17-.6-.49-1.41-2.41-1.54-5.36h0s.67-1.56,1.56-1.07c1.39.76,4.07-2.31,3.22-6.35a11.17,11.17,0,0,0-.33-1.2,2.48,2.48,0,0,0,.92.23c.81,0,2-2.06,2.19-2.75s0-3-1.12-3.64-2.79.1-2.86.13c.55-.77,2.43-.62,2.78-.58-4.4-.91-5.31,1.91-5.38,2.16-2.8-2.53-7.07,1.84-8.12,3l-.21.2a3,3,0,0,0-.79.71,3.61,3.61,0,0,0-.73,2.34,8.28,8.28,0,0,0,.56,2.79c.25,2.44,1,5.47,2.09,5.56,0,0,.4,0,1,0,0,0,0,.05,0,.08,0,.41,0,.87,0,1.33v.28c0,1.23-.07,2.4-.35,2.54l-.24,0-.32,0c-1,.13-1.68.23-2.17.31a2.86,2.86,0,0,0-1.46.47l-.17.18a11.2,11.2,0,0,0-3.18,4.17,18,18,0,0,0,22.34.7,24,24,0,0,0-1.55-4.23Z"/><path class="cls-14" d="M539.54,96.1a18,18,0,1,0,18-18,17.88,17.88,0,0,0-18,18Z"/><path class="cls-11" d="M566.69,106.28a.75.75,0,0,0-.09-.14,1.41,1.41,0,0,0-.29-.3h0a4,4,0,0,0-.89-.49h0a14.71,14.71,0,0,0-3.61-.9h0c-.58-.09-1-.15-1.26-.17a2,2,0,0,1-.46-.59h0A11.2,11.2,0,0,1,559,98.9h0s.67-1.56,1.56-1.07c1.39.76,4.07-2.31,3.22-6.34a11,11,0,0,0-.33-1.2,2.48,2.48,0,0,0,.92.23c.81,0,2-2.06,2.19-2.75s0-3-1.12-3.64-2.79.1-2.86.13c.55-.77,2.44-.62,2.78-.58-4.4-.91-5.31,1.91-5.38,2.16-2.8-2.52-7.07,1.85-8.12,3l-.21.2a3.06,3.06,0,0,0-.79.71,3.59,3.59,0,0,0-.73,2.33,8.24,8.24,0,0,0,.56,2.79c.25,2.45,1,5.47,2.09,5.56,0,0,.4,0,1,0,0,0,0,0,0,.08,0,.41,0,.87,0,1.34v.28c0,1.23-.07,2.39-.35,2.54l-.24,0-.32,0c-1,.13-1.68.23-2.17.31a2.91,2.91,0,0,0-1.46.47l-.17.18a11.23,11.23,0,0,0-3.18,4.18l.52.42.09.07.4.3.29.21.3.2c.14.1.29.2.44.29l.3.19.38.22.42.24,0,0h0l.06,0,.34.17h0l.1.05.19.09.19.09.44.19.44.18.2.08.2.08.41.15.43.14.37.11h0l.24.07c.43.12.87.22,1.31.31l.58.1.15,0h.05l.38,0h.14l.35,0h.17l.63,0h1a17.86,17.86,0,0,0,10.73-3.56,24.13,24.13,0,0,0-1.55-4.23Z"/><path class="cls-3" d="M783.35,809.5,718.64,843H675.56c-10.39-7-64.33-43.76-86.66-71.2-4.73-5.82-22-55.92-35.33-96.59v0c1.77,5.4,38.87,84.44,49.44,93.42s66,61.29,81.37,60.76c14.84-.51,93.85-18.69,98.75-19.82l.22-.05Z"/><path class="cls-16" d="M913.55,843H680.25c11.7-4.59,56.47-21.69,102.87-33.45l.22-.05c39.85-10.08,80.88-16.19,103.16-7l.16.24L913.55,843Z"/><path class="cls-3" d="M537.7,534.85h0c3.93-1.44,9.45-2.39,12.13,2.1,4.18,7-11.35,68.55-13.29,76.3l1.13-78.38Z"/><path class="cls-4" d="M538.9,501.74,537.57,539s7.83,1.28,12.28-2,2.1-35.63-10.95-35.19Z"/><path class="cls-7" d="M382.18,717.4c-22.42,4.6-70.73-13-70.73-13l7.79-75.27-54.6,62.53c-27.79-10.34-71.24-37.32-97.06-54.11C233.74,630.32,283.14,565,283.14,565c45.87,24.84,97.64,39.36,97.64,39.36,0,44.74,1.4,113,1.4,113Z"/><path class="cls-17" d="M228.34,649a9.09,9.09,0,1,1,9,9.17,9.09,9.09,0,0,1-9-9.17Z"/></svg>